<svg width="32" height="32" viewBox="0 0 32 32" fill="none" xmlns="http://www.w3.org/2000/svg">
<path d="M13.2441 5.91004C16.7913 2.36318 22.5426 2.36313 26.0898 5.91004C29.637 9.4572 29.6367 15.2085 26.0898 18.7557C24.7252 20.1203 23.0335 20.9577 21.2675 21.2723C20.9522 23.0366 20.1153 24.7263 18.7519 26.0897C15.2046 29.6366 9.45332 29.6369 5.9062 26.0897C2.35934 22.5426 2.35944 16.7912 5.9062 13.244C7.27056 11.8797 8.96186 11.0413 10.7275 10.7264C11.043 8.96254 11.881 7.27317 13.2441 5.91004ZM10.5839 12.286C9.25864 12.5982 8.00027 13.2711 6.96675 14.3046C4.00578 17.266 4.00567 22.0678 6.96675 25.0292C9.92808 27.9905 14.7298 27.9902 17.6914 25.0292C18.7241 23.9964 19.3955 22.7392 19.708 21.4149C17.3697 21.4254 15.0281 20.5398 13.2441 18.7557C11.4586 16.9701 10.5719 14.6262 10.5839 12.286ZM12.0888 12.0878C12.0237 14.1094 12.7616 16.152 14.3046 17.6952C15.8462 19.2368 17.8865 19.9744 19.9062 19.911C19.971 17.8896 19.2343 15.8475 17.6914 14.3046C16.1495 12.7628 14.1088 12.0241 12.0888 12.0878ZM25.0293 6.97059C22.0679 4.00947 17.2661 4.00951 14.3046 6.97059C13.2721 8.00312 12.5996 9.25997 12.2871 10.5839C14.6257 10.573 16.9675 11.4598 18.7519 13.244C20.5373 15.0294 21.4229 17.3728 21.4111 19.7128C22.7367 19.4007 23.9955 18.7289 25.0293 17.6952C27.9904 14.7337 27.9906 9.93196 25.0293 6.97059Z" fill="currentColor"/>
</svg>
